<svg id="Layer_1" data-name="Layer 1" xmlns="http://www.w3.org/2000/svg" viewBox="0 0 88 88"><title>icon</title><path d="M44,36a8,8,0,1,0,8,8A8,8,0,0,0,44,36Zm18.71-6.15a7.95,7.95,0,0,0-4.55-4.55,13.28,13.28,0,0,0-4.46-.83c-2.53-.12-3.29-0.14-9.7-0.14s-7.17,0-9.7.14a13.28,13.28,0,0,0-4.46.83,7.95,7.95,0,0,0-4.55,4.55,13.28,13.28,0,0,0-.83,4.46c-0.12,2.53-.14,3.29-0.14,9.7s0,7.17.14,9.7a13.28,13.28,0,0,0,.83,4.46,7.95,7.95,0,0,0,4.55,4.55,13.28,13.28,0,0,0,4.46.83c2.53,0.12,3.29.14,9.7,0.14s7.17,0,9.7-.14a13.28,13.28,0,0,0,4.46-.83,7.95,7.95,0,0,0,4.55-4.55,13.28,13.28,0,0,0,.83-4.46c0.12-2.53.14-3.29,0.14-9.7s0-7.17-.14-9.7A13.28,13.28,0,0,0,62.71,29.85ZM44,56.32A12.32,12.32,0,1,1,56.32,44,12.32,12.32,0,0,1,44,56.32ZM56.81,34.07a2.88,2.88,0,1,1,2.88-2.88A2.88,2.88,0,0,1,56.81,34.07ZM44,0A44,44,0,1,0,88,44,44,44,0,0,0,44,0ZM67.86,53.9a17.61,17.61,0,0,1-1.12,5.83,12.27,12.27,0,0,1-7,7,17.62,17.62,0,0,1-5.83,1.12C51.34,68,50.52,68,44,68s-7.34,0-9.9-.14a17.62,17.62,0,0,1-5.83-1.12,12.27,12.27,0,0,1-7-7,17.61,17.61,0,0,1-1.12-5.83C20,51.34,20,50.52,20,44s0-7.34.14-9.89a17.61,17.61,0,0,1,1.12-5.83,12.27,12.27,0,0,1,7-7,17.62,17.62,0,0,1,5.83-1.12C36.66,20,37.48,20,44,20s7.34,0,9.9.14a17.62,17.62,0,0,1,5.83,1.12,12.27,12.27,0,0,1,7,7,17.61,17.61,0,0,1,1.12,5.83C68,36.66,68,37.48,68,44S68,51.34,67.86,53.9Z"/></svg>