<svg xmlns="http://www.w3.org/2000/svg" viewBox="0 0 100 100"><path d="M71.1 14.8c2.5 0 4.9 1 6.7 2.8l11.7 11.7c3.7 3.7 3.7 9.6 0 13.3l-8.9 8.9-5.4 5.4L50 82 24.9 57l-5.5-5.5-8.9-8.9c-3.7-3.7-3.7-9.6 0-13.3l11.7-11.7c1.8-1.8 4.1-2.8 6.7-2.8 2.5 0 4.9 1 6.7 2.8l8.9 8.9L50 32l5.5-5.5 8.9-8.9c1.8-1.9 4.1-2.8 6.7-2.8m0-7.9c-4.4 0-8.8 1.7-12.2 5l-8.9 9-8.9-8.9c-3.4-3.4-7.8-5-12.2-5-4.4 0-8.8 1.7-12.2 5L5 23.7C-1.7 30.4-1.7 41.3 5 48l8.9 8.9L50 93.1 86.1 57l8.9-8.9c6.7-6.7 6.7-17.6 0-24.3L83.2 12c-3.3-3.4-7.7-5.1-12.1-5.1z"/><path fill="#FFF" d="M77.7 17.5c-1.8-1.8-4.1-2.8-6.7-2.8-2.5 0-4.9 1-6.7 2.8l-8.9 8.9-5.4 5.5-5.5-5.5-8.9-8.9c-1.8-1.8-4.1-2.8-6.7-2.8s-4.9 1-6.7 2.8L10.6 29.2c-3.7 3.7-3.7 9.6 0 13.3l8.9 8.9 5.5 5.5L50 82l25.2-25.2 5.4-5.4 8.9-8.9c3.7-3.7 3.7-9.6 0-13.3L77.7 17.5z"/></svg>