<svg xmlns="http://www.w3.org/2000/svg" viewBox="0 0 100 100"><path d="M95.7 84.8L84 73l-5-5h-.1l-6.3-6.3 1.4-2.6c3.4-6.1 5.1-12.9 5.1-19.7C79.2 17.9 61 0 39.5 0 28.9 0 19 4.5 11.8 11.8 4.5 19 0 28.9 0 39.5 0 49.9 3.8 60 11.4 67.7c7.9 7.9 18 11.8 28.1 11.8 6.9 0 13.7-1.8 19.8-5.2l2.6-1.5 5.9 5.9.2.3 19.6 19.6c1.5 1 2.8 1.4 4.5 1.4 2 0 4-.9 5.4-2.4 1.5-1.5 2.3-3.6 2.3-5.6 0-1.7-.5-3.3-1.4-4.4l-2.7-2.8zm-37-25.9c-5.3 5.1-12.2 7.9-19.1 7.9-14.7 0-26.9-12.2-26.9-27.2 0-14.8 12.3-26.9 26.8-27 14.9.1 27 12.4 27.1 26.9 0 7.1-2.6 14.1-7.9 19.4z"/></svg>