<svg xmlns="http://www.w3.org/2000/svg" viewBox="-255 347 100 100"><path d="M-205 347c-27.6 0-50 22.4-50 50s22.4 50 50 50 50-22.4 50-50-22.4-50-50-50zm13 60.4c-3.5 3.1-11.8 5.1-16.3 1.7-.6-.5-.9-2-1.7-1.4-1.2 5.4-2.9 11.8-5.4 16h-3.5l.1-.1c-.5-2.2-.2-6.5.1-8.6.8-5.4 4.2-12.8 4.2-18.2 0-2.3-1.2-4.8-.8-7.4.8-4.8 7.5-9.2 9.9-3.7 2.8 6.4-5.7 14.1-1.1 18.5 1 .9 3.5 1.5 5.4 1.1 9.8-2 11.1-22.5 3.1-27.3-11.5-6.8-24.5 3.8-23.3 14.8.4 4.1 4.8 6.5 1.1 10.2-5.4-2.1-7.3-6-7.3-12.2.1-13.2 12.2-21.4 25.6-19.9 8.7 1 16.1 8 16.9 15.9.7 7.1-1.6 16.1-7 20.6z"/></svg>