<svg xmlns="http://www.w3.org/2000/svg" viewBox="-255 347 100 100"><path d="M-198.4 403.6c1.6-1.7 2.7-4 2.7-6.6s-1-4.9-2.7-6.6c-1.7-1.7-4-2.7-6.6-2.7s-4.9 1-6.6 2.7c-1.7 1.7-2.7 4-2.7 6.6s1 4.9 2.7 6.6c1.7 1.7 4 2.7 6.6 2.7s4.9-1 6.6-2.7zm-10.9-6.6c0-2.4 2-4.4 4.4-4.4 2.4 0 4.4 2 4.4 4.4s-2 4.4-4.4 4.4c-2.4 0-4.4-2-4.4-4.4z"/><path d="M-205 347c-27.6 0-50 22.4-50 50s22.4 50 50 50 50-22.4 50-50-22.4-50-50-50zm24.6 64c0 5.3-4.3 9.6-9.6 9.6h-29.9c-5.3 0-9.6-4.3-9.6-9.6v-29.9c0-5.3 4.3-9.6 9.6-9.6h29.8c5.4 0 9.7 4.3 9.7 9.6V411z"/><path d="M-191 397c0 3.9-1.6 7.4-4.1 9.9s-6 4.1-9.9 4.1c-3.8 0-7.4-1.6-9.9-4.1s-4.1-6-4.1-9.9c0-.9.1-1.7.3-2.5h-6.1v16.6c0 2.7 2.2 4.9 4.9 4.9h29.8c2.7 0 4.9-2.2 4.9-4.9v-16.6h-6c.1.8.2 1.7.2 2.5zm1.1-20.7h-29.9c-2.7 0-4.9 2.2-4.9 4.9v8.4h8c.5-.9 1.2-1.8 1.9-2.5 2.5-2.5 6-4.1 9.9-4.1 3.8 0 7.4 1.5 9.9 4.1.7.7 1.3 1.6 1.9 2.5h8.1v-8.4c0-2.7-2.2-4.9-4.9-4.9z"/></svg>