<svg xmlns="http://www.w3.org/2000/svg" viewBox="-255 347 100 100"><path d="M-219.2 376.4c-3.4 1-5.1 5.6-3.8 10.3s5.1 7.8 8.5 6.9c3.4-1 5.1-5.6 3.8-10.3s-5.1-7.8-8.5-6.9zm2.3 28.3c-5.7.4-10.1 4-9.8 8.2.3 4.1 5.1 7.2 10.8 6.8 5.7-.4 10.1-4 9.8-8.2-.3-4.2-5.1-7.2-10.8-6.8z"/><path d="M-205 347c-27.6 0-50 22.4-50 50s22.4 50 50 50 50-22.4 50-50-22.4-50-50-50zm.9 38.2c0 7.6-7.1 8.5-7.1 11.7 0 3.3 9.4 5.8 9.4 13.8 0 13.3-16.5 12.6-16.5 12.6s-14.2.5-14.2-10.2 16.2-10.3 17-10.3c-.2-2.5-1.8-2.1-1.8-3.3v-3s-12.2 1.3-12.2-10.5c0-11.9 14-12.2 14-12.2h13.8c0 2.1-6.3 1.3-6.4 2.5 3.6 1.6 4 4.4 4 8.9zm28.3 1h-9.6v9.6h-2.8v-9.6h-9.6v-2.8h9.6v-9.6h2.8v9.6h9.6v2.8z"/></svg>