<svg xmlns="http://www.w3.org/2000/svg" viewBox="-255 347 100 100"><path d="M-200.8 399.5c-1.2 0-2.1.8-2.1 2.1s.8 2.1 2.1 2.1c1.2 0 2.1-.8 2.1-2.1s-.9-2.1-2.1-2.1zm-20.9-16.3c-1.2 0-2.5 1.2-2.5 2.5s1.2 2.5 2.5 2.5 2.5-1.2 2.5-2.5-1.2-2.5-2.5-2.5zm16.3 5c1.2 0 2.5-1.2 2.5-2.5s-1.2-2.5-2.5-2.5c-1.2 0-2.5 1.2-2.5 2.5s.8 2.5 2.5 2.5z"/><path d="M-205 347c-27.5 0-50 22.5-50 50s22.5 50 50 50 50-22.5 50-50-22.5-50-50-50zm-14.2 60.8c-.8 0-1.7 0-2.1.4-2.1 1.2-3.8 2.5-6.2 3.8.4-1.7.8-3.3 1.2-5 .4-1.2 0-1.7-.8-2.5-6.7-4.6-9.6-12.1-7.5-19.2 2.1-6.7 6.7-10.8 13.3-12.9 9.2-2.9 19.2 0 24.6 7.1 2.1 2.5 3.3 5.4 3.3 8.8-5.8.4-10.4 2.1-14.6 5.8s-5.8 8.8-5.4 14.6c-2-.5-3.7-.9-5.8-.9zm39.6 9.2c-1.7 1.7-2.5 2.9-1.2 5 0 .4.4.8.4 1.2-1.7-.8-3.3-2.1-5-2.1s-3.8.8-5.4.8c-5.4.4-10.4-.8-14.6-4.6-7.9-7.1-6.7-18.3 2.5-24.2 7.9-5.4 19.6-3.3 25.4 3.8 4.6 6.3 3.7 14.7-2.1 20.1z"/><path d="M-187.5 399.5c-1.2 0-2.1.8-2.1 2.1s.8 2.1 2.1 2.1 2.1-.8 2.1-2.1-1.3-2.1-2.1-2.1z"/></svg>