<svg xmlns="http://www.w3.org/2000/svg" viewBox="-255 347 100 100"><path d="M-205 347c-27.5 0-50 22.5-50 50s22.5 50 50 50 50-22.5 50-50-22.5-50-50-50zm-4.2 74.6c-12.9 0-26.2-6.2-26.2-16.7 0-5.4 3.3-11.7 9.2-17.5 7.9-7.9 17.1-11.2 20.4-7.9 1.7 1.7 1.7 4.2.8 7.1-.4 1.7 1.7.8 1.7.8 6.2-2.5 11.7-2.9 13.7 0 1.2 1.7.8 3.8 0 6.2-.4 1.2 0 1.2.8 1.7 3.8 1.2 7.5 3.8 7.5 8.3.5 8-10.8 18-27.9 18zm23.4-32.9c.4-1.2 0-2.9-.8-3.8-.8-1.2-2.5-1.7-3.8-1.2-1.2.4-2.1-.4-2.5-1.7s.4-2.1 1.7-2.5c2.9-.4 5.8.4 7.5 2.5 2.1 2.1 2.5 5.4 1.7 7.9-.4 1.2-1.7 1.7-2.5 1.2-.9-.3-1.3-1.2-1.3-2.4zm12 3.7c-.4 1.2-1.7 2.1-2.9 1.7-1.2-.4-2.1-1.7-1.7-2.9 1.2-3.8.4-8.3-2.5-11.2-2.9-3.3-7.1-4.6-11.2-3.8-1.2.4-2.5-.4-2.9-1.7-.4-1.2.4-2.5 1.7-2.9 5.4-1.2 11.7.4 15.8 5 4.6 4.6 5.4 10.4 3.7 15.8z"/><path d="M-210.8 404.5c-.4.4 0 1.2.4 1.7.4.4 1.2 0 1.7-.8.4-.4 0-1.2-.4-1.7-.5 0-1.3.4-1.7.8z"/><path d="M-211.2 393.2c-10.4.8-17.9 7.5-17.5 14.2.8 6.7 9.6 11.2 20 10.4 10.4-.8 17.9-7.5 17.5-14.2-.9-6.6-10-11.2-20-10.4zm8.7 15.9c-2.1 4.6-8.3 7.1-13.3 5.8-5-1.7-7.1-6.7-5-10.8 2.1-4.2 7.5-6.7 12.5-5.4 5.4 1.2 7.9 5.8 5.8 10.4z"/><path d="M-212.9 405.8c-1.7-.8-3.7 0-4.6 1.7-.8 1.7-.4 3.3 1.2 4.2 1.7.8 3.8 0 4.6-1.7.9-1.8.5-3.8-1.2-4.2z"/></svg>