<svg xmlns="http://www.w3.org/2000/svg" viewBox="-255 347 100 100"><path d="M-205 347c-27.5 0-50 22.5-50 50s22.5 50 50 50 50-22.5 50-50-22.5-50-50-50zm18.3 70h-.8c-2.9-.4-5.4-2.9-7.1-4.6-.8-1.2-2.5-3.8-4.6-3.3-2.5.4-1.2 5-2.5 7.1-.8 1.7-4.6 1.2-7.5.8-8.3-.8-12.5-5.4-16.3-10-4.2-5-7.1-10.4-10-16.2-.8-2.1-2.1-4.2-2.1-6.2 1.2-1.2 3.3-.8 5.8-.8 2.1 0 5-.4 6.2.4.8.4 1.7 2.5 2.5 4.2 1.7 3.3 2.9 5.4 4.6 8.3.8 1.2 2.1 3.3 3.3 2.9 1.2-.4 1.7-3.8 1.7-5.8 0-2.5 0-5.4-.8-7.1-.8-1.2-2.1-1.2-3.3-2.1 1.2-2.1 3.8-2.5 7.5-2.5 2.9 0 7.1-.4 7.9 1.7 1.2 2.1.4 5.4.4 7.9 0 2.9-.4 5.8 1.2 7.5 1.7 0 2.5-1.7 3.3-2.9 2.1-2.5 3.3-5 4.6-8.3.8-1.2 1.2-3.8 2.5-4.2 1.7-.8 4.6-.4 7.1-.4 2.1 0 5.8-.4 6.2 1.2.4 1.2-1.2 4.2-1.7 5-2.1 3.3-3.8 5-5.8 7.9-.8 1.2-2.5 2.9-2.5 4.6 0 1.2 1.2 2.5 2.5 3.3 2.1 2.1 3.8 3.8 5.4 5.8.8.8 2.1 2.9 2.1 3.7 1.1 3.3-8.1 2.5-9.8 2.1z"/></svg>