<svg xmlns="http://www.w3.org/2000/svg" viewBox="-255 347 100 100"><path d="M-197.1 387.4c-.8 0-1.7.8-1.7 1.7v7.5l-6.2-8.3c-.4-.4-.8-.8-1.2-.8h-.4c-.8.4-1.2.8-1.2 1.7v12.1c0 .8.8 1.7 1.7 1.7s1.7-.8 1.7-1.7v-7.5l6.2 8.3c.4.4.8.8 1.2.8h.4c.8-.4 1.2-.8 1.2-1.7v-12.1c0-.9-.8-1.7-1.7-1.7zm-19.1 12.1h-4.6v-10.4c0-.8-.8-1.7-1.7-1.7s-1.7.8-1.7 1.7v12.1c0 .8.8 1.7 1.7 1.7h6.2c1.2 0 1.7-.8 1.7-1.7 0-.9-.8-1.7-1.6-1.7zm4.5-12.1c-.8 0-1.7.8-1.7 1.7v12.1c0 .8.8 1.7 1.7 1.7.8 0 1.7-.8 1.7-1.7v-12.1c0-.9-.8-1.7-1.7-1.7z"/><path d="M-205 347c-27.5 0-50 22.5-50 50s22.5 50 50 50 50-22.5 50-50-22.5-50-50-50zm24.2 63.8c-6.2 7.1-20.4 16.2-23.8 17.5-2.9 1.2-2.5-.8-2.5-1.7 0-.4.4-2.5.4-2.5 0-.8.4-2.1 0-2.9 0-.8-1.7-1.2-2.5-1.7-14.6-2.1-25.4-12.5-25.4-24.6 0-13.3 13.8-24.6 30.4-24.6 16.7 0 30.4 10.8 30.4 24.6 0 5.4-2 10.4-7 15.9z"/><path d="M-185.4 391.2c.8 0 1.7-.8 1.7-1.7s-.8-1.7-1.7-1.7h-6.2c-.8 0-1.7.8-1.7 1.7v12c0 .8.8 1.7 1.7 1.7h6.2c.8 0 1.7-.8 1.7-1.7 0-.8-.8-1.7-1.7-1.7h-4.6V397h4.6c.8 0 1.7-.8 1.7-1.7 0-.8-.8-1.7-1.7-1.7v.4h-4.6v-2.9h4.6z"/></svg>